# Blender v2.82 (sub 7) OBJ File: 'dhaka topi.blend'
# www.blender.org
mtllib dhaka topi.mtl
o Cube_Cube.001
v -1.376132 -0.167271 -0.178903
v -1.226053 1.179627 -0.225976
v -1.313439 -0.212501 -1.885106
v -1.284547 1.121725 -1.858083
v 0.023027 -0.158164 -0.197718
v -0.103264 1.372076 -0.152056
v 0.130200 -0.156287 -1.864864
v -0.079381 1.439915 -1.788821
v -1.512659 -0.204423 -1.447882
v -1.518239 -0.205202 -1.054670
v -1.492488 -0.182724 -0.642123
v -1.404737 0.170370 -0.142837
v -1.390197 0.599521 -0.138685
v -1.347116 0.899048 -0.127595
v -1.471976 1.154349 -0.713158
v -1.446330 1.136666 -1.101818
v -1.404947 1.117100 -1.437499
v -1.355812 0.895981 -1.874958
v -1.380930 0.597134 -1.880906
v -1.384861 0.170713 -1.882064
v -0.295058 -0.166793 -2.238285
v -0.622503 -0.170395 -2.400047
v -1.051507 -0.200182 -2.196059
v -0.987355 1.150119 -2.223228
v -0.696580 1.214498 -2.378206
v -0.357544 1.332875 -2.242071
v -0.001980 0.999715 -1.846654
v 0.082683 0.622708 -1.859649
v 0.123230 0.181595 -1.866090
v 0.293423 -0.172282 -0.508012
v 0.363854 -0.137121 -0.970301
v 0.325704 -0.129104 -1.389883
v 0.056439 1.494172 -1.311925
v 0.093411 1.453809 -0.817281
v 0.053338 1.429075 -0.437000
v 0.007683 0.982338 -0.215588
v 0.048344 0.604318 -0.183200
v 0.067044 0.184738 -0.185560
v -0.973946 -0.172631 0.099122
v -0.558038 -0.152789 0.207015
v -0.266324 -0.158581 0.104230
v -0.357173 1.326002 0.071073
v -0.610442 1.280135 0.256332
v -0.925829 1.208969 0.147522
v -0.323877 1.134990 -1.672811
v -0.279705 1.112772 -1.127822
v -0.276942 1.119738 -0.410760
v -0.662278 0.980720 -1.683905
v -0.706554 0.957311 -1.163298
v -0.658003 1.057272 -0.332685
v -0.988964 0.928106 -1.595266
v -1.000280 0.960400 -1.080892
v -0.998820 1.047603 -0.550386
v -0.236823 0.226203 0.118200
v -0.568823 0.191566 0.212891
v -0.973300 0.129804 0.112926
v -0.243561 0.651252 0.139051
v -0.571826 0.619444 0.273198
v -0.968236 0.557424 0.142187
v -0.288971 0.997274 0.131241
v -0.599669 0.968884 0.281933
v -0.952686 0.915608 0.212141
v 0.321922 0.191484 -1.388638
v 0.360055 0.183024 -0.968029
v 0.290374 0.148103 -0.507135
v 0.300334 0.629916 -1.381535
v 0.338375 0.618928 -0.955060
v 0.255573 0.578425 -0.495201
v 0.234949 1.017250 -1.360021
v 0.263401 1.021349 -0.910211
v 0.177987 1.009137 -0.487361
v -1.058443 0.091262 -2.197058
v -0.622851 0.130308 -2.403060
v -0.273146 0.170960 -2.231255
v -1.044133 0.513477 -2.207978
v -0.624906 0.589673 -2.423938
v -0.310641 0.627899 -2.253809
v -1.012240 0.848620 -2.210823
v -0.653914 0.914305 -2.413410
v -0.319228 0.972780 -2.252515
v -1.535490 0.163719 -0.652194
v -1.536186 0.158432 -1.056076
v -1.532527 0.158682 -1.455007
v -1.532610 0.581874 -0.668829
v -1.531197 0.580718 -1.064256
v -1.524259 0.580114 -1.455069
v -1.523039 0.888486 -0.680593
v -1.517983 0.884349 -1.073794
v -1.493166 0.882191 -1.450490
vt 0.396612 0.608421
vt 0.421647 0.580059
vt 0.460679 0.603235
vt 0.447014 0.634429
vt 0.578543 0.592022
vt 0.544587 0.566557
vt 0.547821 0.527402
vt 0.602595 0.538705
vt 0.537064 0.391811
vt 0.501061 0.434830
vt 0.478513 0.421861
vt 0.501778 0.374614
vt 0.376555 0.402862
vt 0.406274 0.427184
vt 0.386949 0.465102
vt 0.346400 0.453281
vt 0.418988 0.488317
vt 0.383183 0.517843
vt 0.468249 0.454305
vt 0.451963 0.416413
vt 0.439006 0.461528
vt 0.429065 0.414494
vt 0.513363 0.535318
vt 0.538841 0.491920
vt 0.493351 0.500549
vt 0.521569 0.457648
vt 0.531144 0.592902
vt 0.489584 0.552946
vt 0.464085 0.522461
vt 0.505283 0.605413
vt 0.464868 0.562826
vt 0.440197 0.528998
vt 0.399636 0.552098
vt 0.094177 0.192026
vt 0.212676 0.278173
vt 0.165073 0.415623
vt 0.000099 0.384258
vt 0.318894 0.361243
vt 0.290327 0.443823
vt 0.563671 0.002984
vt 0.543766 0.172277
vt 0.418874 0.189597
vt 0.368968 0.000099
vt 0.322164 0.213935
vt 0.239667 0.063403
vt 0.517689 0.301445
vt 0.442420 0.312370
vt 0.384504 0.327116
vt 0.449858 0.375375
vt 0.412145 0.383551
vt 0.737146 0.061677
vt 0.661030 0.198426
vt 0.585426 0.318526
vt 0.981426 0.626637
vt 0.812146 0.580822
vt 0.812139 0.423321
vt 0.981426 0.383252
vt 0.760249 0.303963
vt 0.890126 0.205298
vt 0.677319 0.550614
vt 0.670964 0.457656
vt 0.643295 0.384003
vt 0.599430 0.475448
vt 0.573712 0.428589
vt 0.855295 0.851747
vt 0.741033 0.727690
vt 0.629139 0.633788
vt 0.340364 0.987174
vt 0.383664 0.812328
vt 0.511903 0.860051
vt 0.516879 0.999901
vt 0.653374 0.809260
vt 0.717399 0.944534
vt 0.426589 0.690410
vt 0.507309 0.721032
vt 0.584280 0.679666
vt 0.505652 0.650510
vt 0.551265 0.625921
vt 0.158294 0.882311
vt 0.273619 0.749994
vt 0.356575 0.654942
vt 0.164159 0.559144
vt 0.004791 0.588759
vt 0.200447 0.666034
vt 0.059813 0.749077
vt 0.285101 0.536126
vt 0.311243 0.601699
vt 0.343920 0.524021
vt 0.364242 0.570830
vn -0.9627 0.2004 -0.1815
vn -0.4364 0.8942 -0.1001
vn -0.4442 0.8591 -0.2542
vn -0.8476 0.1656 -0.5041
vn 0.6102 0.1107 -0.7844
vn 0.2039 0.8375 -0.5069
vn 0.2036 0.9330 -0.2968
vn 0.8351 0.1890 -0.5166
vn 0.9143 0.1997 0.3522
vn 0.3243 0.9146 0.2414
vn 0.2775 0.8912 0.3587
vn 0.7908 0.1514 0.5930
vn -0.4648 0.0846 0.8813
vn -0.3391 0.8057 0.4855
vn -0.4083 0.8865 0.2176
vn -0.8109 0.1852 0.5550
vn 0.1505 0.9726 -0.1770
vn -0.5466 0.8369 0.0279
vn -0.4699 0.8636 -0.1827
vn 0.2090 0.8987 0.3856
vn -0.1311 0.9630 -0.2355
vn 0.0410 0.7732 0.6327
vn -0.5633 0.8067 0.1786
vn 0.2270 0.9701 -0.0856
vn -0.5303 0.8474 0.0263
vn 0.2733 0.9582 0.0841
vn -0.2001 0.7098 -0.6754
vn -0.2378 0.9534 0.1858
vn -0.1769 0.9835 -0.0374
vn -0.4697 0.7559 -0.4560
vn 0.1547 0.9791 0.1317
vn 0.1665 0.9830 -0.0775
vn -0.4606 0.8816 -0.1030
vn -0.4006 -0.0626 0.9141
vn -0.4000 -0.0601 0.9145
vn -0.8074 -0.0504 0.5878
vn -0.8130 -0.1071 0.5723
vn -0.4223 -0.0688 0.9038
vn -0.8206 0.0132 0.5713
vn 0.7462 -0.0792 0.6609
vn 0.7662 -0.0273 0.6420
vn 0.5391 -0.0539 0.8405
vn 0.5162 -0.0664 0.8539
vn 0.0321 -0.0670 0.9972
vn 0.0345 -0.0348 0.9988
vn 0.7866 0.0761 0.6128
vn 0.5740 0.0260 0.8184
vn 0.0688 -0.0671 0.9954
vn 0.5945 0.1305 0.7934
vn 0.0913 0.0703 0.9933
vn 0.9162 -0.0266 0.3998
vn 0.9238 0.0109 0.3827
vn 0.9230 0.1003 0.3713
vn 0.8146 0.0033 -0.5800
vn 0.8189 0.0318 -0.5730
vn 0.9691 0.0380 -0.2434
vn 0.9704 0.0139 -0.2409
vn 0.9988 0.0338 0.0345
vn 0.9994 0.0111 0.0335
vn 0.8225 0.1067 -0.5586
vn 0.9599 0.1260 -0.2504
vn 0.9921 0.1158 0.0472
vn 0.9377 0.2591 -0.2314
vn 0.9651 0.2559 0.0561
vn 0.5550 -0.0089 -0.8318
vn 0.5777 0.0025 -0.8162
vn 0.5920 0.0447 -0.8047
vn -0.8340 -0.0994 -0.5426
vn -0.8462 -0.0421 -0.5311
vn -0.5859 -0.0312 -0.8097
vn -0.5931 -0.0487 -0.8036
vn 0.0097 -0.0193 -0.9998
vn -0.0024 -0.0115 -0.9999
vn -0.8453 0.0485 -0.5320
vn -0.5818 0.0125 -0.8132
vn 0.0098 0.0017 -0.9999
vn -0.6023 0.0592 -0.7961
vn -0.0289 0.0504 -0.9983
vn -0.9772 -0.0849 -0.1945
vn -0.9825 -0.0354 -0.1831
vn -0.9836 0.0489 -0.1737
vn -0.9900 -0.0404 0.1348
vn -0.9850 -0.0981 0.1422
vn -0.9996 -0.0282 0.0023
vn -0.9976 -0.0683 0.0114
vn -0.9905 0.0385 0.1319
vn -0.9993 0.0334 -0.0160
vn -0.9724 0.1794 0.1490
vn -0.9860 0.1599 -0.0474
usemtl Material
s 1
f 89/1/1 17/2/2 4/3/3 18/4/4
f 80/5/5 26/6/6 8/7/7 27/8/8
f 71/9/9 35/10/10 6/11/11 36/12/12
f 62/13/13 44/14/14 2/15/15 14/16/16
f 53/17/17 15/18/18 2/15/15 44/14/14
f 35/10/10 47/19/19 42/20/20 6/11/11
f 47/19/19 50/21/21 43/22/22 42/20/20
f 50/21/21 53/17/17 44/14/14 43/22/22
f 8/7/7 26/6/6 45/23/23 33/24/24
f 33/24/24 45/23/23 46/25/25 34/26/26
f 34/26/26 46/25/25 47/19/19 35/10/10
f 26/6/6 25/27/27 48/28/28 45/23/23
f 45/23/23 48/28/28 49/29/29 46/25/25
f 46/25/25 49/29/29 50/21/21 47/19/19
f 25/27/27 24/30/30 51/31/31 48/28/28
f 48/28/28 51/31/31 52/32/32 49/29/29
f 49/29/29 52/32/32 53/17/17 50/21/21
f 24/30/30 4/3/3 17/2/2 51/31/31
f 51/31/31 17/2/2 16/33/33 52/32/32
f 52/32/32 16/33/33 15/18/18 53/17/17
f 39/34/34 56/35/35 12/36/36 1/37/37
f 56/35/35 59/38/38 13/39/39 12/36/36
f 59/38/38 62/13/13 14/16/16 13/39/39
f 5/40/40 38/41/41 54/42/42 41/43/43
f 41/43/43 54/42/42 55/44/44 40/45/45
f 40/45/45 55/44/44 56/35/35 39/34/34
f 38/41/41 37/46/46 57/47/47 54/42/42
f 54/42/42 57/47/47 58/48/48 55/44/44
f 55/44/44 58/48/48 59/38/38 56/35/35
f 37/46/46 36/12/12 60/49/49 57/47/47
f 57/47/47 60/49/49 61/50/50 58/48/48
f 58/48/48 61/50/50 62/13/13 59/38/38
f 36/12/12 6/11/11 42/20/20 60/49/49
f 60/49/49 42/20/20 43/22/22 61/50/50
f 61/50/50 43/22/22 44/14/14 62/13/13
f 30/51/51 65/52/52 38/41/41 5/40/40
f 65/52/52 68/53/53 37/46/46 38/41/41
f 68/53/53 71/9/9 36/12/12 37/46/46
f 7/54/54 29/55/55 63/56/56 32/57/57
f 32/57/57 63/56/56 64/58/58 31/59/59
f 31/59/59 64/58/58 65/52/52 30/51/51
f 29/55/55 28/60/60 66/61/61 63/56/56
f 63/56/56 66/61/61 67/62/62 64/58/58
f 64/58/58 67/62/62 68/53/53 65/52/52
f 28/60/60 27/8/8 69/63/63 66/61/61
f 66/61/61 69/63/63 70/64/64 67/62/62
f 67/62/62 70/64/64 71/9/9 68/53/53
f 27/8/8 8/7/7 33/24/24 69/63/63
f 69/63/63 33/24/24 34/26/26 70/64/64
f 70/64/64 34/26/26 35/10/10 71/9/9
f 21/65/65 74/66/66 29/55/55 7/54/54
f 74/66/66 77/67/67 28/60/60 29/55/55
f 77/67/67 80/5/5 27/8/8 28/60/60
f 3/68/68 20/69/69 72/70/70 23/71/71
f 23/71/71 72/70/70 73/72/72 22/73/73
f 22/73/73 73/72/72 74/66/66 21/65/65
f 20/69/69 19/74/74 75/75/75 72/70/70
f 72/70/70 75/75/75 76/76/76 73/72/72
f 73/72/72 76/76/76 77/67/67 74/66/66
f 19/74/74 18/4/4 78/77/77 75/75/75
f 75/75/75 78/77/77 79/78/78 76/76/76
f 76/76/76 79/78/78 80/5/5 77/67/67
f 18/4/4 4/3/3 24/30/30 78/77/77
f 78/77/77 24/30/30 25/27/27 79/78/78
f 79/78/78 25/27/27 26/6/6 80/5/5
f 9/79/79 83/80/80 20/69/69 3/68/68
f 83/80/80 86/81/81 19/74/74 20/69/69
f 86/81/81 89/1/1 18/4/4 19/74/74
f 1/37/37 12/36/36 81/82/82 11/83/83
f 11/83/83 81/82/82 82/84/84 10/85/85
f 10/85/85 82/84/84 83/80/80 9/79/79
f 12/36/36 13/39/39 84/86/86 81/82/82
f 81/82/82 84/86/86 85/87/87 82/84/84
f 82/84/84 85/87/87 86/81/81 83/80/80
f 13/39/39 14/16/16 87/88/88 84/86/86
f 84/86/86 87/88/88 88/89/89 85/87/87
f 85/87/87 88/89/89 89/1/1 86/81/81
f 14/16/16 2/15/15 15/18/18 87/88/88
f 87/88/88 15/18/18 16/33/33 88/89/89
f 88/89/89 16/33/33 17/2/2 89/1/1
